<?xml version="1.0" encoding="UTF-8" standalone="no"?>
<svg
   xmlns:dc="http://purl.org/dc/elements/1.1/"
   xmlns:cc="http://creativecommons.org/ns#"
   xmlns:rdf="http://www.w3.org/1999/02/22-rdf-syntax-ns#"
   xmlns:svg="http://www.w3.org/2000/svg"
   xmlns="http://www.w3.org/2000/svg"
   id="svg2158"
   version="1.1"
   viewBox="0 0 200 206.625"
   height="206.625mm"
   width="200mm">
  <defs
     id="defs2152" />
  <metadata
     id="metadata2155">
    <rdf:RDF>
      <cc:Work
         rdf:about="">
        <dc:format>image/svg+xml</dc:format>
        <dc:type
           rdf:resource="http://purl.org/dc/dcmitype/StillImage" />
        <dc:title></dc:title>
      </cc:Work>
    </rdf:RDF>
  </metadata>
  <g
     transform="translate(0,-90.375)"
     id="layer1">
    <path
       transform="matrix(0.18049897,0.02547083,-0.02547083,0.18049897,-128.64898,828.1452)"
       d="m 1169.8276,-3123.1658 c -193.10093,123.3012 -958.01826,-273.8795 -968.24979,-502.7605 -10.23152,-228.8809 716.19579,-692.7283 919.52829,-587.1486 203.3324,105.5797 241.8224,966.6079 48.7215,1089.9091 z"
       id="path1743-1-4-5"
       style="opacity:0.98000004;vector-effect:none;fill:#d2eaff;fill-opacity:1;stroke:none;stroke-width:0.47142884;stroke-linecap:butt;stroke-linejoin:miter;stroke-miterlimit:4;stroke-dasharray:none;stroke-dashoffset:0;stroke-opacity:1" />
    <g
       transform="matrix(0.22132999,0,0,-0.22132999,-820.22284,367.14859)"
       id="g1971">
      <path
         id="path42"
         style="fill:#7eb2d8;fill-opacity:1;fill-rule:nonzero;stroke:none;stroke-width:0.98855525"
         d="m 3956.5659,348.93925 c -28.9548,31.1988 -63.485,53.5995 -102.3353,50.881 0,0 -1.898,-16.242 -3.2424,-50.881 h 105.5777" />
      <path
         id="path44-9"
         style="fill:#f7ac80;fill-opacity:1;fill-rule:nonzero;stroke:none;stroke-width:0.98855525"
         d="m 4215.9134,535.28195 h -121.8691 v 163.1314 h 121.8691 v -163.1314" />
      <path
         id="path46"
         style="fill:#f7ac80;fill-opacity:1;fill-rule:nonzero;stroke:none;stroke-width:0.98855525"
         d="m 4430.7759,464.72875 c -33.8778,52.4626 -87.1708,66.688 -87.1708,66.688 l -127.6917,47.3023 h -121.8691 l -127.6225,-47.3023 c 0,0 -53.293,-14.2254 -87.1906,-66.688 h 551.5447" />
      <path
         id="path50-1"
         style="fill:#f7ac80;fill-opacity:1;fill-rule:nonzero;stroke:none;stroke-width:0.98855525"
         d="m 4003.2356,696.57465 c 25.3367,-63.3862 57.2472,-77.6214 57.2472,-77.6214 l 40.6,-2.5406 c 22.4303,5.882 60.5095,20.305 60.5095,20.305 86.4492,42.5968 116.699,44.6629 129.2338,94.15 0.3856,1.5224 30.8331,252.7143 30.8331,252.7143 -4.9527,127.87955 -140.6517,136.85565 -161.0752,137.50805 -20.3148,1.9574 -150.8536,20.4928 -172.1767,-105.6469 0,0 -36.5568,-147.77915 14.8283,-318.86845" />
      <path
         id="path52-9"
         style="fill:#f7ac80;fill-opacity:1;fill-rule:nonzero;stroke:none;stroke-width:0.98855525"
         d="m 4004.3032,728.56435 c 17.2306,-33.087 48.7951,-71.5517 90.3837,-71.0475 30.9516,0.3657 67.281,13.6322 95.7712,25.6036 30.6947,12.8907 69.9502,24.8819 96.4929,44.6332 1.3049,0.9688 2.5505,2.0464 3.8554,3.0547 v 0.099 c 0.3855,1.5224 30.833,252.7143 30.833,252.7143 -4.9527,127.87965 -140.6517,136.85565 -161.0752,137.50815 -20.3148,1.9573 -150.8536,20.4927 -172.1767,-105.6469 0,0 -31.5448,-127.94875 5.4173,-283.53755 3.6082,1.7003 8.0963,1.2555 10.4787,-3.3413" />
      <path
         id="path54"
         style="fill:#e8a178;fill-opacity:1;fill-rule:nonzero;stroke:none;stroke-width:0.98855525"
         d="m 4259.2023,694.30095 c -50.3076,-23.577 -79.0845,-39.7201 -117.8754,-53.2139 -59.3529,-20.6213 -90.6604,-24.2295 -138.4373,56.7035 l 0.346,-1.2159 c 25.3367,-63.3862 57.2472,-77.6214 57.2472,-77.6214 l 40.6,-2.5406 c 22.4303,5.882 60.5095,20.305 60.5095,20.305 67.7457,33.3835 100.9018,41.9444 118.1422,67.894 -6.6035,-3.7467 -13.4838,-7.0287 -20.5322,-10.3107" />
      <path
         id="path56-4"
         style="fill:#91451e;fill-opacity:1;fill-rule:nonzero;stroke:none;stroke-width:0.98855525"
         d="m 4290.8261,730.86765 c 93.6261,114.0299 86.7853,274.65035 86.7853,274.65035 9.2232,216.899 -247.5738,185.9177 -247.5738,185.9177 -91.0954,1.2356 -89.0787,46.1951 -89.0787,46.1951 -43.5261,-31.9896 -30.9023,-82.8409 -30.9023,-82.8409 -15.8663,0.6524 -16.9833,29.2514 -16.9833,29.2514 -57.3264,-44.3565 -23.8143,-105.7359 -23.8143,-105.7359 -11.1312,-61.9528 7.5327,-226.01345 7.5327,-226.01345 0,0 5.1801,164.36715 49.4278,199.57945 0,0 44.3466,20.8783 75.6542,-5.2097 0,0 147.9669,57.2868 167.6491,-93.04285 l 19.0593,-130.9441 2.244,-91.8071" />
      <path
         id="path58"
         style="fill:#f7ac80;fill-opacity:1;fill-rule:nonzero;stroke:none;stroke-width:0.98855525"
         d="m 4280.901,839.54945 c 0,0 15.985,51.6619 54.9242,27.3928 0,0 17.6358,-10.3996 2.1649,-45.5822 0,0 -22.4698,-50.624 -60.1734,-29.1328 l 3.0843,47.3222" />
      <path
         id="path60-7"
         style="fill:#91451e;fill-opacity:1;fill-rule:nonzero;stroke:none;stroke-width:0.98855525"
         d="m 4269.5228,953.61885 c 0,0 11.2695,-87.2301 1.2851,-135.6002 l 17.448,-1.117 c 0,0 1.1072,60.9543 31.782,65.7191 l -50.5151,70.9981" />
      <path
         id="path62"
         style="fill:#7eb2d8;fill-opacity:1;fill-rule:nonzero;stroke:none;stroke-width:0.98855525"
         d="m 4464.404,348.93925 c -5.1899,32.4938 -9.3023,53.1942 -10.9235,57.959 0,0 -12.7425,102.3946 -123.9846,84.3633 0,0 -87.3883,-27.6004 -71.6308,-142.3223 h 206.5389" />
      <path
         id="path48-3"
         style="fill:#97c5ec;fill-opacity:1;fill-rule:nonzero;stroke:none;stroke-width:0.98855525"
         d="m 4431.6755,348.93925 24.1405,48.0339 c -16.4495,108.9586 -112.2109,134.4436 -112.2109,134.4436 l -127.6917,47.3023 -80.8342,-48.9433 -41.0349,48.9433 -127.6225,-47.3023 c 0,0 -95.7811,-25.485 -112.2307,-134.4436 l 17.4974,-48.0339 h 559.987" />
      <path
         id="path64-8"
         style="fill:#c7e2f6;fill-opacity:1;fill-rule:nonzero;stroke:none;stroke-width:0.98855525"
         d="m 4135.0792,529.77575 -42.3596,66.3221 -66.5001,-35.2321 49.8825,-80.1916 58.9772,49.1016" />
      <path
         id="path66"
         style="fill:#c7e2f6;fill-opacity:1;fill-rule:nonzero;stroke:none;stroke-width:0.98855525"
         d="m 4135.0792,529.77575 80.8342,75.1302 66.8066,-42.073 -88.2681,-87.0423 -59.3727,53.9851" />
    </g>
  </g>
</svg>
