<?xml version="1.0" encoding="UTF-8" standalone="no"?>
<svg
   xmlns:dc="http://purl.org/dc/elements/1.1/"
   xmlns:cc="http://creativecommons.org/ns#"
   xmlns:rdf="http://www.w3.org/1999/02/22-rdf-syntax-ns#"
   xmlns:svg="http://www.w3.org/2000/svg"
   xmlns="http://www.w3.org/2000/svg"
   id="svg2158"
   version="1.1"
   viewBox="0 0 200 206.625"
   height="206.625mm"
   width="200mm">
  <defs
     id="defs2152" />
  <metadata
     id="metadata2155">
    <rdf:RDF>
      <cc:Work
         rdf:about="">
        <dc:format>image/svg+xml</dc:format>
        <dc:type
           rdf:resource="http://purl.org/dc/dcmitype/StillImage" />
        <dc:title></dc:title>
      </cc:Work>
    </rdf:RDF>
  </metadata>
  <g
     transform="translate(0,-90.375)"
     id="layer1">
    <path
       transform="matrix(0.18049897,0.02547083,-0.02547083,0.18049897,-128.64898,828.1452)"
       d="m 1169.8276,-3123.1658 c -193.10093,123.3012 -958.01826,-273.8795 -968.24979,-502.7605 -10.23152,-228.8809 716.19579,-692.7283 919.52829,-587.1486 203.3324,105.5797 241.8224,966.6079 48.7215,1089.9091 z"
       id="path1743-1"
       style="opacity:0.98000004;vector-effect:none;fill:#d2eaff;fill-opacity:1;stroke:none;stroke-width:0.47142884;stroke-linecap:butt;stroke-linejoin:miter;stroke-miterlimit:4;stroke-dasharray:none;stroke-dashoffset:0;stroke-opacity:1" />
    <g
       transform="matrix(0.16610761,0,0,-0.16610761,-198.57016,537.35075)"
       id="g1924">
      <g
         transform="matrix(0.207781,0,0,0.207781,-1950.0361,-528.29665)"
         id="g166">
        <path
           id="path168"
           style="fill:#e4f2ff;fill-opacity:1;fill-rule:nonzero;stroke:none"
           d="m 16300,9719.95 c -89.6,86.77 -144.8,204.44 -144.8,333.55 v 8.2 0 -8.3 c 0,-129.01 55.2,-246.68 144.8,-333.45 v 0 0" />
      </g>
      <g
         transform="matrix(0.205936,0,0,0.205936,-1950.0361,-528.29665)"
         id="g174">
        <path
           id="path176"
           style="fill:#f2f9ff;fill-opacity:1;fill-rule:nonzero;stroke:none"
           d="m 16300,10151.9 v 0 2315 -2315" />
      </g>
      <g
         transform="matrix(0.205936,0,0,0.205936,-1950.0361,-528.29665)"
         id="g186">
        <path
           id="path188"
           style="fill:#f8fcff;fill-opacity:1;fill-rule:nonzero;stroke:none"
           d="m 16300,13497.7 v 201.9 -201.8 -0.1" />
      </g>
      <g
         transform="matrix(0.205936,0,0,0.205936,-1950.0361,-528.29665)"
         id="g190">
        <path
           id="path192"
           style="fill:#f2f9ff;fill-opacity:1;fill-rule:nonzero;stroke:none"
           d="m 16300,13040.7 v 457 0.1 -457.1 0" />
      </g>
      <g
         transform="matrix(0.240806,0,0,0.240806,-1950.0361,-528.29665)"
         id="g210">
        <path
           id="path212"
           style="fill:#b4d5f9;fill-opacity:1;fill-rule:nonzero;stroke:none"
           d="m 16300,8757 c -13.3,-137.99 -54.7,-265.15 -117,-376.94 h -1551.6 c -50.3,94.68 -85.9,199.79 -102.5,312.04 -0.1,0.54 -0.2,1.08 -0.3,1.62 86.7,167.64 183.7,379.1 266.6,624.69 21.2,62.54 41.3,127.28 60.2,194.01 126.4,446.5 194.2,984.68 83.7,1566.98 -28.5,149.8 -66.5,290.5 -110.7,421.9 47.5,37.2 109.7,75.8 176.4,85.4 1.6,0.2 3.3,0.4 4.9,0.6 21.8,2.7 44.1,2.1 66.4,-2.6 0.6,-0.1 1.2,-0.3 1.8,-0.4 2.2,-0.5 4.3,-1 6.3,-1.5 l 0.1,-0.1 c 38.9,-10.2 52.9,-29.4 97.3,-55.3 65.2,-38.1 143.3,-60 222.6,-66.6 34.7,-2.9 69.7,-3 104,-0.1 18.2,1.5 36.2,3.8 53.9,6.9 30.9,5.4 60.7,13.2 88.7,23.3 60.8,22.1 97,49.4 126,67.7 25.6,16.1 45.8,25.1 72.5,17.4 7.1,-2.1 13.9,-5.1 20.1,-8.9 69.9,-42 90.2,-182.4 97.7,-237.7 16.2,-120.6 30,-262.9 42.1,-415.3 v 0 c 5.5,-68.2 10.6,-138.5 15.5,-209.8 2.3,-32.8 4.5,-65.8 6.7,-99 3,-45.8 5.9,-91.9 8.8,-137.9 22.6,-361.3 41.8,-718.06 68.2,-938.49 v -0.25 c 7.3,-60.75 17.4,-130.6 32.1,-208.51 29.7,-156.93 77.8,-346.42 157.9,-559.04 0.6,-1.37 1.1,-2.74 1.6,-4.11" />
      </g>
      <g
         transform="matrix(0.231545,0,0,0.231545,-1950.0361,-528.29665)"
         id="g214">
        <path
           id="path216"
           style="fill:#013666;fill-opacity:1;fill-rule:nonzero;stroke:none"
           d="m 15894.8,10330.7 c 80.4,672.3 104.1,1046.8 87.7,1213.5 -3.6,36.9 -19,163.3 47.5,209.5 30.2,20.9 81.2,28.1 110.4,6 25.2,-19 26.9,-54.3 28.6,-74.6 8.2,-103.1 34.6,-86.5 62.1,-238.4 68.9,-380.3 0.9,-1022.5 -7.3,-1098 -12,-109.5 -24.1,-198.7 -76.8,-216.7 -87.9,-30 -224.8,159.8 -252.2,198.7" />
      </g>
      <g
         transform="matrix(0.228333,0,0,0.228333,-1950.0361,-528.29665)"
         id="g218">
        <path
           id="path220"
           style="fill:#ffffff;fill-opacity:1;fill-rule:nonzero;stroke:none"
           d="m 16300,10289.2 v -1.2 c -0.9,-22.2 -1.8,-44.4 -2.7,-66.5 -2,-50.5 -4,-101.1 -6.1,-151.6 -2.1,-53.4 -4.3,-106.87 -6.4,-160.3 -2,-51.07 -4.1,-102.13 -6.1,-153.15 0,-0.57 0,-1.05 0,-1.62 -0.9,-20.68 -1.7,-41.35 -2.5,-62.06 -0.2,-5.17 -0.5,-10.38 -0.6,-15.55 -1,-22.86 -1.9,-45.77 -2.8,-68.63 -1,-23.6 -1.9,-47.17 -2.8,-70.77 -1.1,-27.11 -2.2,-54.22 -3.3,-81.33 0,-0.74 0,-1.58 -0.1,-2.37 -0.8,-15.5 -1.7,-31 -2.5,-46.51 v -0.04 c -0.1,-1.84 -0.3,-3.68 -0.4,-5.52 -0.3,-6.74 -0.7,-13.49 -1.1,-20.23 -3.5,-60.44 -7.3,-120.79 -11.3,-181.23 v -0.04 c -3.9,-58.12 -8.1,-116.28 -12.5,-174.44 -4.8,-62.8 -9.9,-125.56 -15.3,-188.28 -1.4,-16.9 -2.9,-33.81 -4.4,-50.71 h -920.9 c 10.9,168.61 17.2,313.49 20.9,430.95 0.9,26.71 1.5,51.98 2.2,75.81 v 0.04 c 0,2.1 0.1,4.25 0.1,6.35 1.3,52.16 2.3,105.59 3.7,162.88 1.9,77.6 4.5,162.35 9.8,260.89 v 0.04 c 0.1,0.57 0.1,1.14 0.1,1.71 v 0.04 c 0.1,1.1 0.2,2.15 0.2,3.29 v 0.04 c 0.3,5.52 0.6,11.13 0.9,16.73 1.1,18.66 2.2,37.75 3.5,57.42 1.2,19.09 2.6,38.71 4,58.9 0.1,1.27 0.2,2.54 0.3,3.81 9.5,131.52 19.3,224.98 23.4,270.08 19,210.1 18.7,521.6 -67.5,966 -7,35.7 -14.4,72.3 -22.5,109.8 52.9,130.4 74.7,242.5 84.4,322.5 15.4,126.7 8.2,235.3 0,361.4 -4.9,73.3 -11.5,134.6 -17,178.4 l -0.1,0.6 c 69.5,19 148.3,45.4 232.6,82.3 96.3,42.1 177.9,88.5 244.6,131.8 0.7,-22.7 1.6,-45.8 2.7,-69.3 0.1,-3.6 0.3,-7.3 0.4,-10.9 0.8,-17.1 1.8,-34.4 2.8,-51.9 0,-0.4 0,-0.9 0.1,-1.4 v 0 c 0.8,-15.2 1.7,-30.7 2.8,-46.3 v 0 c 14.5,-219.2 45.1,-465.8 102.5,-732.1 29.2,-135.7 62.7,-264.2 99,-385.6 34.2,-114.4 70.8,-222.2 108.6,-323.3 v -0.1 c 39.3,-105.1 79.9,-202.9 120.1,-293.2 13.1,-29.3 26.2,-57.9 39.2,-85.6" />
      </g>
      <g
         transform="matrix(0.242401,0,0,0.242401,-1950.0361,-528.29665)"
         id="g226">
        <path
           id="path228"
           style="fill:#ffffff;fill-opacity:1;fill-rule:nonzero;stroke:none"
           d="m 16192,10251 c -81.6,-208.2 -79.3,-427.1 -62.8,-869.42 6.4,-173.43 21.3,-395.42 55,-659.12 v -0.2 c 1.9,-15.23 3.9,-30.66 6,-46.21 v -0.08 c 16.6,-124.34 37.4,-257.47 63.4,-398.8 h -1038 c -1,15.63 -1.9,31.56 -2.8,47.77 -5,87.95 -10.1,183.21 -14.6,278.05 v 0.04 c -0.6,13.08 -1.2,26.16 -1.8,39.24 -2,43.76 -3.8,87.29 -5.4,129.66 -1.1,27.72 -2.1,54.95 -2.8,81.51 v 0.04 c -0.2,3.88 -0.3,7.72 -0.4,11.51 -1,29.34 -1.7,57.72 -2.3,84.95 v 0.04 c -0.1,5.44 -0.2,10.89 -0.3,16.25 v 0.04 c -0.5,24.18 -0.8,47.24 -1,69.1 0,14.73 -0.1,45.92 1,87.79 0.1,4.13 0.2,8.42 0.3,12.75 0.3,9.04 0.6,18.48 1,28.34 0.4,10.64 0.8,21.33 1.3,32.01 5.6,139.49 14,280.16 61.5,423.4 14.5,43.64 30.4,80.94 47.3,114.52 v 0.04 c 6.7,13.4 13.6,26.15 20.5,38.53 25.4,44.96 52.1,84.45 78.9,126.32 0,0 52,81.6 121.8,218.73 v 0 c 61.7,121 137.1,285.2 202.8,474.7 38.8,111.6 78.8,271.5 82.2,482.4 v 0.2 c 0.9,55.7 -0.8,114.8 -5.7,177.6 v 0.1 c -5.7,74.3 -16,153.7 -32,238.2 -2.3,12.2 -4.7,24.5 -7.3,36.9 v 0 c -1.9,9 -3.8,18 -5.7,27.1 4.6,-3.9 9.3,-7.9 14.1,-12 51,-42.7 112.5,-88.5 184.9,-132.9 29.8,-18.2 59.1,-34.7 87.5,-49.7 58.8,-31 114.2,-55.3 163.9,-74.5 42.1,-150.7 62.5,-279.1 73.3,-372.5 12.8,-110.2 24.2,-209.2 10.5,-331.2 -13.2,-117.6 -44,-205.2 -70.3,-271.5 -8.8,-22.2 -17,-42 -24,-59.7" />
      </g>
      <g
         transform="matrix(0.230877,0,0,0.230877,-1950.0361,-528.29665)"
         id="g230">
        <path
           id="path232"
           style="fill:#013666;fill-opacity:1;fill-rule:nonzero;stroke:none"
           d="m 15907.8,11871 c 52.5,-39.9 105,-79.7 157.6,-119.6 11.1,6.5 46.1,24.7 91.6,18.2 30.1,-4.4 51.5,-17.6 62.4,-25.4 26.8,37.4 53.7,74.9 80.6,112.3 -25.6,29 -51.3,57.9 -77,86.9 -78.2,-2.4 -156.4,-4.8 -234.6,-7.2 -26.8,-21.8 -53.7,-43.5 -80.6,-65.2" />
      </g>
      <g
         transform="matrix(0.22206,0,0,0.22206,-1950.0361,-528.29665)"
         id="g234">
        <path
           id="path236"
           style="fill:#000202;fill-opacity:1;fill-rule:nonzero;stroke:none"
           d="m 16071.5,11942.1 -34.8,3.3 c 14.7,150.7 67.8,369.1 237.4,554.2 l 25.9,-23.2 c -163.2,-178 -214.4,-388.8 -228.5,-534.3" />
      </g>
      <g
         transform="matrix(0.236229,0,0,0.236229,-1950.0361,-528.29665)"
         id="g238">
        <path
           id="path240"
           style="fill:#000202;fill-opacity:1;fill-rule:nonzero;stroke:none"
           d="m 16268.6,10768.6 -32.7,2.6 c 30.9,379.4 -15.6,715.9 -138.2,1000.2 -40.7,94.5 -83.3,164.8 -158.6,201.2 -198.2,95.7 -483.6,-99.2 -616.8,-244.6 l -24.4,21.8 c 139.7,152.3 441.2,355.5 655.7,251.9 84.4,-40.8 130.7,-116.5 174.3,-217.5 124.7,-289.2 172.1,-630.9 140.7,-1015.6" />
      </g>
      <g
         transform="matrix(0.221952,0,0,0.221952,-1950.0361,-528.29665)"
         id="g242">
        <path
           id="path244"
           style="fill:#000202;fill-opacity:1;fill-rule:nonzero;stroke:none"
           d="m 16207.9,11021.5 -26.7,22.4 c 31.1,36.1 53.6,75.9 66.9,118.3 16.4,52.2 12.5,89.3 3.9,170.6 -2.1,19.2 -4.4,40.8 -6.7,65.5 -7.5,79.8 -9,123.7 -10,155.7 -1.4,38.9 -2.1,62.4 -11.8,116.3 -23.4,131.5 -52.7,177.3 -80.9,207.3 -19,20.2 -54.3,57.8 -98.1,55.6 -47.6,-2.3 -81.6,-51.4 -102,-80.7 -41.5,-59.8 -53,-120 -67.1,-212.1 -22.6,-147.4 -33.9,-221.5 -34.3,-285.1 -0.7,-121.6 16.5,-243.4 51.2,-362 l -33.6,-9.5 c -35.6,121.7 -53.3,246.8 -52.5,371.7 0.3,66.2 11.8,141 34.6,290 14.9,97 27.2,160.6 72.9,226.5 22.4,32.3 64.1,92.5 129.1,95.7 60.1,3 104.2,-44 125.4,-66.5 31.8,-34 64.7,-84.6 89.8,-224.9 10,-56.3 10.9,-82.1 12.2,-121.1 1.1,-33.4 2.5,-75 9.9,-153.7 2.3,-24.6 4.6,-46 6.6,-65.1 8.8,-83.6 13.3,-125.5 -5.2,-184.4 -14.7,-46.9 -39.5,-90.7 -73.6,-130.5" />
      </g>
      <g
         transform="matrix(0.238579,0,0,0.238579,-1950.0361,-528.29665)"
         id="g246">
        <path
           id="path248"
           style="fill:#000202;fill-opacity:1;fill-rule:nonzero;stroke:none"
           d="m 16201.7,10373.2 c -18.4,-16.6 -41.1,-29 -66.9,-35.5 -84,-21 -169.6,29.4 -190.8,112.5 -21.3,82.9 29.8,167.5 113.7,188.5 46.2,11.5 92.9,1.5 129,-23.6 29.7,-20.7 52.3,-51.5 61.9,-88.8 14.7,-57.5 -5.3,-115.7 -46.9,-153.1 z m 78.4,160.9 c -13.7,53.6 -49.7,96 -95.8,119.9 h -0.1 c -22.9,11.9 -48.3,19.3 -74.8,21.1 -10.8,0.7 -21.7,0.6 -32.6,-0.5 -9.1,-1 -18,-2.5 -27,-4.8 -101.3,-25.3 -163,-127.4 -137.3,-227.5 25.6,-100.2 128.9,-161.1 230.3,-135.7 22.6,5.6 43.1,15.1 61.3,27.5 63.2,43.2 95.9,122.2 76,200" />
      </g>
      <g
         transform="matrix(0.217175,0,0,0.217175,-1950.0361,-528.29665)"
         id="g250">
        <path
           id="path252"
           style="fill:#000202;fill-opacity:1;fill-rule:nonzero;stroke:none"
           d="m 16293.6,11236.9 c 6.4,-25.2 -9,-50.8 -34.5,-57.2 -25.5,-6.4 -51.4,8.9 -57.9,34 -6.4,25.2 9.1,50.8 34.5,57.2 25.5,6.4 51.4,-8.9 57.9,-34" />
      </g>
      <g
         transform="matrix(0.220775,0,0,0.220775,-1950.0361,-528.29665)"
         id="g254">
        <path
           id="path256"
           style="fill:#000202;fill-opacity:1;fill-rule:nonzero;stroke:none"
           d="m 16293.7,11094.7 c 6.3,-24.8 -8.9,-50 -34,-56.2 -25,-6.3 -50.5,8.7 -56.9,33.5 -6.3,24.8 8.9,50 34,56.2 25.1,6.3 50.5,-8.7 56.9,-33.5" />
      </g>
      <g
         transform="matrix(0.233077,0,0,0.233077,-1950.0361,-528.29665)"
         id="g258">
        <path
           id="path260"
           style="fill:#ad8b74;fill-opacity:1;fill-rule:nonzero;stroke:none"
           d="m 16300,11794.4 c -241.3,58.2 -482.7,116.4 -724.1,174.5 26.8,217.2 53.6,434.4 80.4,651.6 h 643.7 v -826.1" />
      </g>
      <g
         transform="matrix(0.227866,0,0,0.227866,-1950.0361,-528.29665)"
         id="g262">
        <path
           id="path264"
           style="fill:#ffffff;fill-opacity:1;fill-rule:nonzero;stroke:none"
           d="m 15999.2,11859 c 100.2,90.6 200.5,181.1 300.8,271.6 -55.1,23.9 -138.4,67.9 -219.1,146.8 -66.8,65.3 -108.5,131.5 -133.7,179.9 -29.9,-74.6 -59.9,-149.1 -89.8,-223.6 47.3,-124.9 94.5,-249.8 141.8,-374.7" />
      </g>
      <g
         transform="matrix(0.234148,0,0,0.234148,-1950.0361,-528.29665)"
         id="g266">
        <path
           id="path268"
           style="fill:#ffffff;fill-opacity:1;fill-rule:nonzero;stroke:none"
           d="m 16195.2,11519.4 c -85.6,92.9 -171.1,185.7 -256.6,278.6 44.9,24.6 108.3,66 169.9,132.1 58.8,63.4 94.5,126.4 115.6,171.5 5.9,-31.5 15.8,-69.5 32.6,-110.7 13.6,-33.6 28.8,-62.2 43.3,-85.8 -34.9,-128.5 -69.9,-257.1 -104.8,-385.7" />
      </g>
      <g
         transform="matrix(0.229183,0,0,0.229183,-1950.0361,-528.29665)"
         id="g270">
        <path
           id="path272"
           style="fill:#1f4788;fill-opacity:1;fill-rule:nonzero;stroke:none"
           d="m 16300,10108.5 c 0,-42.2 -34.6,-76.4 -77.3,-76.4 -42.7,0 -77.3,34.2 -77.3,76.4 0,42.2 34.6,76.4 77.3,76.4 42.7,0 77.3,-34.2 77.3,-76.4" />
      </g>
      <g
         transform="matrix(0.229183,0,0,0.229183,-1950.0361,-528.29665)"
         id="g274">
        <path
           id="path276"
           style="fill:#1f4788;fill-opacity:1;fill-rule:nonzero;stroke:none"
           d="m 16300,9796.48 c 0,-42.2 -34.6,-76.36 -77.3,-76.36 -42.7,0 -77.3,34.16 -77.3,76.36 0,42.19 34.6,76.4 77.3,76.4 42.7,0 77.3,-34.21 77.3,-76.4" />
      </g>
      <g
         transform="matrix(0.229128,0,0,0.229128,-1950.0361,-528.29665)"
         id="g278">
        <path
           id="path280"
           style="fill:#1f4788;fill-opacity:1;fill-rule:nonzero;stroke:none"
           d="m 16300,9499.16 c 0,-42.2 -34.6,-76.42 -77.3,-76.42 -42.7,0 -77.4,34.22 -77.4,76.42 0,42.2 34.7,76.38 77.4,76.38 42.7,0 77.3,-34.18 77.3,-76.38" />
      </g>
      <g
         transform="matrix(0.239602,0,0,0.239602,-1950.0361,-528.29665)"
         id="g282">
        <path
           id="path284"
           style="fill:#1a5da0;fill-opacity:1;fill-rule:nonzero;stroke:none"
           d="m 16219.4,9366.29 c -95.9,-29.55 -191.7,-59.14 -287.5,-88.69 -34.7,-10.73 -70,14.9 -70,50.83 v 136.56 c 143.1,48.84 286.1,97.71 429.2,146.58 2.1,-44.91 4.3,-89.86 6.5,-134.76 2.4,-50.13 -29.7,-95.58 -78.2,-110.52" />
      </g>
      <g
         transform="matrix(0.217593,0,0,0.217593,-1950.0361,-528.29665)"
         id="g286">
        <path
           id="path288"
           style="fill:#ffffff;fill-opacity:1;fill-rule:nonzero;stroke:none"
           d="m 16182.8,12688 c 46.1,-339.9 7.9,-599.4 -35.1,-772.5 -40.5,-163.3 -88.5,-262.9 -417.5,-993.2 -62.2,-138.1 -112.2,-249.4 -141.7,-315.1 98.9,-62.5 207.3,-139.3 318.8,-233.4 145.8,-122.8 262.5,-245.9 354.3,-355.9 12.8,-110.81 25.6,-221.66 38.4,-332.51 -336.2,89.53 -590.8,210.67 -758.8,303.37 -307.2,169.64 -604.5,333.74 -634.7,592.24 -10.1,86.4 15,137.5 115.1,353 198.1,426 449.6,829.4 612.7,1269.7 32.5,87.6 79.1,223.3 210,334.4 113.8,96.4 243.8,133.7 338.5,149.9" />
      </g>
      <g
         transform="matrix(0.227906,0,0,0.227906,-1950.0361,-528.29665)"
         id="g290">
        <path
           id="path292"
           style="fill:#013666;fill-opacity:1;fill-rule:nonzero;stroke:none"
           d="m 15802.3,9291.9 c -35.4,-132.65 40.2,-307.19 140.4,-322.33 98.2,-14.88 188.5,127.6 218.9,175.42 70.3,110.79 138.4,307.06 66.3,368.31 -83.8,71.26 -373.5,-26.63 -425.6,-221.4" />
      </g>
      <g
         transform="matrix(0.225334,0,0,0.225334,-1950.0361,-528.29665)"
         id="g294">
        <path
           id="path296"
           style="fill:#ffffff;fill-opacity:1;fill-rule:nonzero;stroke:none"
           d="m 16162.6,9042.08 c -543.7,253.84 -1087.3,507.69 -1630.9,761.57 -20.6,23.97 -158.7,189.86 -90.8,342.45 77.4,173.9 353.8,176.3 378.4,176.2 493.5,-222.8 987.1,-445.56 1480.7,-668.38 -75,-65.81 -128.2,-126.7 -164.8,-173.52 -110.7,-141.79 -117.5,-217.23 -115.9,-247.94 0.2,-4.53 0.5,-7.37 0.6,-8.21 8.5,-72.34 82.4,-138.33 142.7,-182.17" />
      </g>
      <g
         transform="matrix(0.230821,0,0,0.230821,-1950.0361,-528.29665)"
         id="g298">
        <path
           id="path300"
           style="fill:#57a8e5;fill-opacity:1;fill-rule:nonzero;stroke:none"
           d="m 16300,9580.59 v -293.65 l -1384.2,90.12 -198.3,264.7 1582.5,-61.17" />
      </g>
      <g
         transform="matrix(0.230834,0,0,0.230834,-1950.0361,-528.29665)"
         id="g302">
        <path
           id="path304"
           style="fill:#94c9f7;fill-opacity:1;fill-rule:nonzero;stroke:none"
           d="m 14719.7,9720.48 1580.3,-81.53 -4,-76.72 -1580.3,81.57 4,76.68" />
      </g>
      <g
         transform="matrix(0.23228,0,0,0.23228,-1950.0361,-528.29665)"
         id="g306">
        <path
           id="path308"
           style="fill:#eab488;fill-opacity:1;fill-rule:nonzero;stroke:none"
           d="m 15545.3,9002.85 c 159.6,-9.55 389.5,2.28 626.8,113.05 46.4,21.7 89,45.21 127.9,69.53 -2.2,99.02 -4.3,198.04 -6.4,297.06 -28.2,5.68 -66.6,8.35 -96,-12.66 -20.7,-14.81 -26.5,-34.05 -44.7,-69.53 0,0 -19.4,-37.71 -64,-101.12 -71.7,-101.91 -279.3,-13.95 -424,-112.2 -40.5,-27.46 -89.8,-78.82 -119.6,-184.13" />
      </g>
      <g
         transform="matrix(0.231368,0,0,0.231368,-1950.0361,-528.29665)"
         id="g310">
        <path
           id="path312"
           style="fill:#d6a27f;fill-opacity:1;fill-rule:nonzero;stroke:none"
           d="m 15968.2,9396.72 c 84.4,22.73 178.7,21 188.7,20.7 56.5,-1.64 105.4,-9.73 143.1,-18.16 -7.9,-28.05 -23.5,-64.96 -57.8,-88.81 -25.1,-17.42 -45.5,-17.77 -90.4,-26.2 -10.8,-2.07 -104.8,-20.18 -171.3,-51.3 -19.1,-8.9 -32.8,-17.59 -43.8,-26.02 -38.8,-29.69 -63.7,-52.43 -73.4,-61.46 -56.9,-53.12 -194.2,-56.92 -214,-18.71 -26.7,51.34 137.2,221.03 318.9,269.96" />
      </g>
      <g
         transform="matrix(0.222577,0,0,0.222577,-1950.0361,-528.29665)"
         id="g314">
        <path
           id="path316"
           style="fill:#f8b586;fill-opacity:1;fill-rule:nonzero;stroke:none"
           d="m 16263.9,13370.4 c 36.1,-119.9 33.7,-226.4 -5.5,-237.9 -39,-11.5 -100,76.4 -136.1,196.3 -36.1,119.8 -33.7,226.3 5.4,237.8 39.1,11.5 100.1,-76.3 136.2,-196.2" />
      </g>
      <g
         transform="matrix(0.235201,0,0,0.235201,-1950.0361,-528.29665)"
         id="g318">
        <path
           id="path320"
           style="fill:#da9770;fill-opacity:1;fill-rule:nonzero;stroke:none"
           d="m 16272.6,12618.9 c -27.4,-115.2 -80,-201.6 -117.6,-192.8 -37.6,8.7 -45.9,109.2 -18.5,224.4 27.4,115.2 80.1,201.5 117.7,192.8 37.6,-8.7 45.8,-109.2 18.4,-224.4" />
      </g>
      <g
         transform="matrix(0.234423,0,0,0.234423,-1950.0361,-528.29665)"
         id="g322">
        <path
           id="path324"
           style="fill:#f8b586;fill-opacity:1;fill-rule:nonzero;stroke:none"
           d="m 16269.4,12740.1 c -8.8,-108.5 -26.3,-196 -45.2,-290.9 -23,-115.5 -34.9,-174 -57.4,-212.6 -58.5,-100.2 -188.6,-203.9 -339.3,-194.7 -4.7,0.3 -9.3,0.7 -13.8,1.2 -157.5,16.7 -253.7,150.6 -269.3,172.4 -44.9,62.4 -80.6,205.5 -150.2,489.2 -5.1,20.9 -7.6,31.3 -8.6,35.4 -43,181.2 -80.3,350 20.8,501 90.4,134.9 261.7,197.3 407.3,197.4 4.6,0 9.2,0 13.8,-0.2 150.2,-4 317.3,-74.2 403.3,-210.2 69.2,-109.4 59,-235.6 38.6,-488" />
      </g>
      <g
         transform="matrix(0.234423,0,0,0.234423,-1950.0361,-528.29665)"
         id="g326">
        <path
           id="path328"
           style="fill:#da9770;fill-opacity:1;fill-rule:nonzero;stroke:none"
           d="m 16269.4,12740.1 c -8.8,-108.5 -26.3,-196 -45.2,-290.9 -23,-115.5 -34.9,-174 -57.4,-212.6 -58.5,-100.2 -188.6,-203.9 -339.3,-194.7 -4.7,0.3 -9.3,0.7 -13.8,1.2 v 1395.4 c 4.6,0 9.2,0 13.8,-0.2 150.2,-4 317.3,-74.2 403.3,-210.2 69.2,-109.4 59,-235.6 38.6,-488" />
      </g>
      <g
         transform="matrix(0.224903,0,0,0.224903,-1950.0361,-528.29665)"
         id="g330">
        <path
           id="path332"
           style="fill:#013666;fill-opacity:1;fill-rule:nonzero;stroke:none"
           d="m 16174.8,13966.6 c -63.5,18.5 -124,-25.1 -145.4,-40.5 -7.6,-5.5 -41.6,-30.8 -67.1,-77.4 -29.7,-54.4 -30.1,-105.3 -29.8,-140 0.1,-18.4 1.5,-41.7 22.3,-129 27.6,-115.4 43.4,-180.3 82.7,-261.4 15.7,-32.3 30.5,-57.7 40.4,-73.9 1.3,28.7 2.1,75.4 -3.7,132.6 -11.7,115.7 -37.6,150.5 -29.9,235.9 4.7,51.8 10,109.9 52.2,143.7 63.2,50.5 147.3,-2.6 175.3,36.8 28.2,39.7 -17,149.9 -97,173.2" />
      </g>
      <g
         transform="matrix(0.234923,0,0,0.234923,-1950.0361,-528.29665)"
         id="g334">
        <path
           id="path336"
           style="fill:#013666;fill-opacity:1;fill-rule:nonzero;stroke:none"
           d="m 16191.9,12520.7 c -0.4,0.1 34.9,77.3 17.8,169.3 -9.5,51.1 -26.8,61.9 -25,109.4 1.9,48.7 21.2,61.6 14.3,102.3 -7,41.6 -29.9,44 -39.3,81.1 -13.7,54.5 27.9,79.9 39.3,144.7 18,102.3 -61.9,176.1 -46.4,186.9 15.8,11.1 112.1,-57.5 139.2,-162.2 6.5,-24.9 8.2,-48.5 0,-123.5 -12.6,-116.1 -31.6,-197.8 -57.1,-315.7 0,0 -41.5,-192.6 -42.8,-192.3" />
      </g>
      <g
         transform="matrix(0.235372,0,0,0.235372,-1950.0361,-528.29665)"
         id="g338">
        <path
           id="path340"
           style="fill:#020a54;fill-opacity:1;fill-rule:nonzero;stroke:none"
           d="m 15833.1,13299.6 c -17.4,-37.7 85.3,-115.8 116.3,-139.4 36.5,-27.8 148.3,-112.8 268.6,-85.9 20.1,4.5 60.4,13.5 67.7,38.7 14.3,49.6 -109.6,121.6 -124.7,130.3 -130.6,74.6 -307.5,100.3 -327.9,56.3" />
      </g>
      <g
         transform="matrix(0.234863,0,0,0.234863,-1950.0361,-528.29665)"
         id="g342">
        <path
           id="path344"
           style="fill:#013666;fill-opacity:1;fill-rule:nonzero;stroke:none"
           d="m 15906.7,13261.4 c -12.3,-34.5 -40.8,-95.1 -99.8,-118 -69.7,-27.2 -139.8,14.8 -239.2,74.5 -68.2,40.8 -108.5,65.8 -124.6,116.6 -21.9,68.7 17,132.6 20.8,138.6 72.1,114.5 261.4,102.3 307.2,98.8 82,-6.3 148.7,-40.6 282.1,-109.4 0,0 221.3,-114 242.8,-215.2 1.2,-5.6 4,-19.9 -3.6,-31.8 -14.4,-22.6 -59.2,-25.3 -91.4,-12.6 -30.8,12.1 -30.7,30.6 -65.7,62 -18.4,16.5 -63.5,57 -118.6,56.4 -57.7,-0.6 -98.4,-46 -110,-59.9" />
      </g>
      <g
         transform="matrix(0.232996,0,0,0.232996,-1950.0361,-528.29665)"
         id="g346">
        <path
           id="path348"
           style="fill:#013666;fill-opacity:1;fill-rule:nonzero;stroke:none"
           d="m 16258.2,12856 -5.3,-64.7 c -2.5,-30.2 -24.2,-55.1 -54.1,-62 l -99.5,-23 c -36.5,-8.4 -73.2,12.9 -83.6,48.5 l -25.3,87.7 c -6.1,21.2 -2,43.4 11.4,60.9 13.4,17.6 33.9,27.7 56.2,27.7 h 130.2 c 19.9,0 38.2,-8 51.7,-22.4 13.4,-14.5 20,-33.2 18.3,-52.7 z m 41.6,10 c -0.8,19.3 -6.7,38 -17,54.3 -3.6,5.7 -7.8,11.1 -12.5,16.1 -21,22.6 -51,35.6 -82.1,35.6 H 16058 c -35.4,0 -68,-16 -89.3,-44 -10.6,-13.8 -17.5,-29.4 -20.6,-45.8 -2.7,-14 -2.6,-28.6 0.4,-42.9 0.6,-2.7 1.3,-5.4 2.1,-8 l 25.3,-87.7 c 14,-48.3 58.5,-80.1 107.3,-80.1 8.4,0 17,1 25.6,3 l 99.5,22.9 c 35.2,8.2 63.2,32.1 77,63.5 4.8,10.9 7.9,22.7 8.9,35.1 l 0.2,2.7 v 0.1 l 5.1,61.9 c 0.4,4.4 0.5,8.9 0.3,13.3" />
      </g>
      <g
         transform="matrix(0.226902,0,0,0.226902,-1950.0361,-528.29665)"
         id="g350">
        <path
           id="path352"
           style="fill:#013666;fill-opacity:1;fill-rule:nonzero;stroke:none"
           d="m 16253.7,13169.3 -26.2,-90.6 c -10.6,-36.5 -48.1,-58.3 -85.5,-49.7 l -102.6,23.7 c -30.6,7.1 -52.8,32.5 -55.4,63.4 l -5.5,66.9 c -1.6,20 5.1,39.2 18.9,53.9 13.8,14.8 32.5,22.9 52.8,22.9 h 134.4 c 22.8,0 43.7,-10.3 57.4,-28.2 13.8,-18 18,-40.7 11.7,-62.3 z m 40,54 c -3.9,11.9 -9.8,23.2 -17.7,33.6 -21.8,28.5 -55.2,45 -91.4,45 h -134.4 c -31.8,0 -62.5,-13.3 -84.1,-36.5 -11.2,-12 -19.6,-26.2 -24.6,-41.5 -2.5,-7.4 -4.2,-15.1 -5,-22.8 v -0.1 c -0.8,-7.1 -0.9,-14.3 -0.4,-21.4 l 1,-11.7 v 0 l 0.1,-1.3 0.4,-3.5 v -0.1 l 4.1,-50.3 c 2.1,-25.4 12.6,-48.6 29,-66.6 v 0 c 15.3,-16.7 35.6,-28.9 59,-34.3 l 102.6,-23.7 c 8.8,-2.1 17.6,-3 26.2,-3 50,0 95.5,32.5 109.9,82 l 26.2,90.6 c 2.1,7.2 3.5,14.5 4.1,21.8 1.3,14.9 -0.4,29.8 -5,43.8" />
      </g>
      <g
         transform="matrix(0.228302,0,0,0.228302,-1950.0361,-528.29665)"
         id="g354">
        <path
           id="path356"
           style="fill:#013666;fill-opacity:1;fill-rule:nonzero;stroke:none"
           d="m 16300,13104.6 -123.8,-7.3 -2.7,43.8 123.9,7.3 2.6,-43.8" />
      </g>
      <g
         transform="matrix(0.233804,0,0,0.233804,-1950.0361,-528.29665)"
         id="g358">
        <path
           id="path360"
           style="fill:#013666;fill-opacity:1;fill-rule:nonzero;stroke:none"
           d="m 16300,12872.3 c -26,-23.3 -52,-46.6 -77.9,-70 -4.4,21 -8.8,41.9 -13.2,62.9 29.6,17.6 59.1,35.3 88.6,53 0.9,-15.3 1.7,-30.6 2.5,-45.9" />
      </g>
      <g
         transform="matrix(0.22219,0,0,0.22219,-1950.0361,-528.29665)"
         id="g362">
        <path
           id="path364"
           style="fill:#013666;fill-opacity:1;fill-rule:nonzero;stroke:none"
           d="m 16300,13410.3 c -20.6,29.6 -41.2,59.3 -61.8,88.9 -0.4,17.8 -0.7,35.7 -1,53.5 20.8,-23.7 41.6,-47.4 62.4,-71 0.2,-23.8 0.3,-47.6 0.4,-71.4" />
      </g>
      <g
         transform="matrix(0.233475,0,0,0.233475,-1950.0361,-528.29665)"
         id="g366">
        <path
           id="path368"
           style="fill:#b4d5f9;fill-opacity:1;fill-rule:nonzero;stroke:none"
           d="m 16300,12553.5 c -23.1,-103.7 -46.2,-207.5 -69.3,-311.2 -11.1,-13.9 -136.8,-165.1 -339.6,-151.5 -3.9,0.2 -7.8,0.6 -11.6,0.9 -159.3,15.5 -252.6,124.6 -268.7,144.1 -33,100.5 -66,200.9 -99,301.4 122.6,2.5 245.1,5.1 367.7,7.6 140.2,2.9 280.4,5.8 420.5,8.7" />
      </g>
      <g
         transform="matrix(0.233475,0,0,0.233475,-1950.0361,-528.29665)"
         id="g370">
        <path
           id="path372"
           style="fill:#92c0ea;fill-opacity:1;fill-rule:nonzero;stroke:none"
           d="m 16300,12553.5 c -23.1,-103.7 -46.2,-207.5 -69.3,-311.2 -11.1,-13.9 -136.8,-165.1 -339.6,-151.5 -3.9,0.2 -7.8,0.6 -11.6,0.9 v 453.1 c 140.2,2.9 280.4,5.8 420.5,8.7" />
      </g>
      <g
         transform="matrix(0.223543,0,0,0.223543,-1950.0361,-528.29665)"
         id="g374">
        <path
           id="path376"
           style="fill:#b4d5f9;fill-opacity:1;fill-rule:nonzero;stroke:none"
           d="m 16300,12960.7 -54,-23.7 c -62.6,190.2 -125.3,380.5 -188,570.7 17.3,-3.4 34.5,-6.8 51.7,-10.2 63.4,-178.9 126.9,-357.8 190.3,-536.8" />
      </g>
      <g
         transform="matrix(0.234479,0,0,0.234479,-1950.0361,-528.29665)"
         id="g378">
        <path
           id="path380"
           style="fill:#92c0ea;fill-opacity:1;fill-rule:nonzero;stroke:none"
           d="m 16151.4,12425.1 c 18.1,-11.3 36.1,-22.7 54.2,-34 31.5,167.1 62.9,334.2 94.4,501.3 -16.4,-3.3 -32.8,-6.5 -49.3,-9.8 -33.1,-152.5 -66.2,-305 -99.3,-457.5" />
      </g>
      <g
         transform="matrix(0.259406,0,0,0.259406,-1950.0361,-528.29665)"
         id="g382">
        <path
           id="path384"
           style="fill:#dff0ff;fill-opacity:1;fill-rule:nonzero;stroke:none"
           d="m 16138.3,8949.77 c -108.1,-72.51 -267.1,9.91 -390.8,73.9 -136.3,70.58 -390,234.34 -594.5,610.55 9.9,121.82 11.3,274.86 -13.4,448.78 -31.6,222 -95.1,402.9 -152.9,533.7 44.1,-1 100.3,-7.4 161.8,-27.8 151.6,-50.4 240.6,-154.1 277.5,-203.5 l 787.1,-1049.52 c 86.9,-126.52 53.2,-300.26 -74.8,-386.11" />
      </g>
      <g
         transform="matrix(0.25159,0,0,0.25159,-1950.0361,-528.29665)"
         id="g386">
        <path
           id="path388"
           style="fill:#f8b586;fill-opacity:1;fill-rule:nonzero;stroke:none"
           d="m 16280.2,10817.7 c 19.8,-18.3 6.9,-62.7 0.6,-84.5 -12.6,-43.3 -27.8,-50.1 -35.7,-87.3 -6.9,-32 0.3,-46.2 0,-70.6 -1.1,-76 -73.2,-166.5 -148.5,-176.4 -37.7,-5.1 -35.9,15.4 -133.5,37.1 -76.7,17 -92.5,7.6 -129.7,29.7 -52.7,31.3 -73.3,81.4 -77.1,91 -5.9,15.1 -17.2,45.1 -11.2,81.7 5.6,34.3 24,60.6 41.3,85.5 20.5,29.3 31.7,35.2 39.5,59.4 5.1,15.9 4.2,25.6 3.7,55.7 -1.5,106.9 8,116.8 13.2,120.8 3.2,2.4 2.5,0.8 62,3.7 28.7,1.4 41.8,2.4 56.4,-5.6 10.8,-5.9 12.1,-11.1 18.8,-11.1 18.2,-0.2 21.2,37.5 43.2,48.2 30.1,14.7 80,-28.5 92.2,-39 67.3,-58.2 67.5,-121.6 118.4,-131.8 21.6,-4.4 34.4,4.5 46.4,-6.5" />
      </g>
      <g
         transform="matrix(0.24503,0,0,0.24503,-1950.0361,-528.29665)"
         id="g390">
        <path
           id="path392"
           style="fill:#eab488;fill-opacity:1;fill-rule:nonzero;stroke:none"
           d="m 16258.3,10835 c -15,-5.6 -29.6,-2.2 -41.4,1.2 -38,10.8 -61,39.3 -71.5,54.6 -19.7,79.6 -39.4,159.1 -59.1,238.6 -10.6,27.4 3.4,58.5 31.1,69 27.8,10.5 59.2,-3.4 69.8,-30.8 l 102.2,-263.6 c 10.6,-27.4 -3.4,-58.4 -31.1,-69" />
      </g>
      <g
         transform="matrix(0.246221,0,0,0.246221,-1950.0361,-528.29665)"
         id="g394">
        <path
           id="path396"
           style="fill:#eab488;fill-opacity:1;fill-rule:nonzero;stroke:none"
           d="m 16221.2,11115.6 c -21,1.5 -34.4,16.3 -34.4,16.3 -8.6,9.4 -13.6,22 -12.9,35.6 l 24.9,470 c 1.5,27.1 25.1,48.1 52.5,46.7 27.5,-1.4 48.7,-24.8 47.3,-51.9 -1,-149.6 -1.8,-299.2 -2.8,-448.8 -15.5,-42.9 -46.6,-69.9 -74.6,-67.9" />
      </g>
      <g
         transform="matrix(0.248676,0,0,0.248676,-1950.0361,-528.29665)"
         id="g398">
        <path
           id="path400"
           style="fill:#da9770;fill-opacity:1;fill-rule:nonzero;stroke:none"
           d="m 16230.2,11073.8 c -14.4,-5.9 -35.4,-14.6 -49.6,-4.4 -13.2,9.5 -16.6,32.7 -7.6,56.4 11.2,58.9 22.5,117.8 33.7,176.8 2.5,24.7 24.9,42.9 49.8,40.5 25,-2.4 43.5,-24.5 41.1,-49.2 l -17.6,-179.6 c -7.4,-10.5 -23.1,-29.5 -49.8,-40.5" />
      </g>
      <g
         transform="matrix(0.248676,0,0,0.248676,-1950.0361,-528.29665)"
         id="g402">
        <path
           id="path404"
           style="fill:#eab488;fill-opacity:1;fill-rule:nonzero;stroke:none"
           d="m 16239.9,11173.1 v 0 c -25,2.4 -43.4,24.5 -41,49.2 l 7.8,80.3 c 2.4,24.7 24.9,42.9 49.8,40.5 25,-2.4 43.5,-24.5 41.1,-49.2 l -7.9,-80.3 c -2.4,-24.7 -24.8,-42.9 -49.8,-40.5" />
      </g>
      <g
         transform="matrix(0.250543,0,0,0.250543,-1950.0361,-528.29665)"
         id="g406">
        <path
           id="path408"
           style="fill:#da9770;fill-opacity:1;fill-rule:nonzero;stroke:none"
           d="m 16194.8,10939.2 v 0 c -24.2,5.9 -39,30.4 -32.9,54.3 l 44.1,173.6 c 6.1,23.9 30.9,38.5 55,32.5 24.2,-6 39,-30.4 32.9,-54.3 -12.5,-67.1 -25,-134.2 -37.6,-201.3 4.2,-20.4 3.4,-39.9 -5.6,-44.7 -10.8,-5.9 -35,8.6 -55.9,39.9" />
      </g>
      <g
         transform="matrix(0.250521,0,0,0.250521,-1950.0361,-528.29665)"
         id="g410">
        <path
           id="path412"
           style="fill:#eab488;fill-opacity:1;fill-rule:nonzero;stroke:none"
           d="m 16220.2,11034.5 v 0 c -24.1,6 -39,30.4 -32.9,54.3 l 18.7,73.7 c 6.1,23.9 30.9,38.5 55,32.5 24.2,-6 39,-30.5 32.9,-54.3 l -18.7,-73.7 c -6.1,-23.9 -30.8,-38.5 -55,-32.5" />
      </g>
      <g
         transform="matrix(0.252335,0,0,0.252335,-1950.0361,-528.29665)"
         id="g414">
        <path
           id="path416"
           style="fill:#da9770;fill-opacity:1;fill-rule:nonzero;stroke:none"
           d="m 16170.2,10749.3 c -4.7,2.1 -18.1,8.1 -25.1,23.2 -4.8,10.4 -5.6,22.6 -1.2,34 l 63.2,166.4 c 8.7,22.9 34.7,34.6 57.9,26.1 23.1,-8.6 35,-34.4 26.3,-57.3 -16.3,-59.7 -32.7,-119.4 -49,-179.1 -2.1,-1.6 -39,-28.2 -72.1,-13.3" />
      </g>
      <g
         transform="matrix(0.252335,0,0,0.252335,-1950.0361,-528.29665)"
         id="g418">
        <path
           id="path420"
           style="fill:#eab488;fill-opacity:1;fill-rule:nonzero;stroke:none"
           d="m 16203.9,10837.9 v 0 c -23.2,8.6 -35,34.3 -26.4,57.2 l 29.6,77.8 c 8.7,22.9 34.7,34.6 57.9,26.1 23.1,-8.6 35,-34.4 26.3,-57.3 l -29.5,-77.8 c -8.7,-22.9 -34.8,-34.6 -57.9,-26" />
      </g>
      <g
         transform="matrix(0.245529,0,0,0.245529,-1950.0361,-528.29665)"
         id="g422">
        <path
           id="path424"
           style="fill:#f9cdaf;fill-opacity:1;fill-rule:nonzero;stroke:none"
           d="m 16274.3,11133.2 c 5.5,-7.7 8.1,-17.8 13.5,-38 3.9,-14.8 8,-30.3 9.6,-51.4 1.7,-20.4 2.6,-32.4 -1.9,-47.6 -3.3,-11.3 -9.7,-32.8 -26.9,-40 -22.2,-9.2 -52.6,5.2 -63.6,26.7 -7.8,15.1 -4.6,31.1 -3.1,39.1 3.9,19.4 11.8,19.7 17.5,39 3.5,12.1 2.7,27.3 0.9,57 -2,31.7 -4.5,38.2 0.4,42 10,7.7 38.9,-5.7 53.6,-26.8" />
      </g>
      <g
         transform="matrix(0.250771,0,0,0.250771,-1950.0361,-528.29665)"
         id="g426">
        <path
           id="path428"
           style="fill:#d38a66;fill-opacity:1;fill-rule:nonzero;stroke:none"
           d="m 15926.9,10484.4 c -0.5,4.2 23.5,5.7 54.4,21.1 17.8,8.9 36.8,18.1 51,37.3 18.4,24.9 15.7,46.9 30.1,50.3 7.5,1.7 12.1,-3.2 24.5,-9.3 26.7,-13.1 52,-13.1 66,-13.1 8.4,0 37.4,0.8 69.8,16.8 14.5,7.1 15.8,13.8 56.6,46.6 6.8,5.4 12.4,9.9 16.2,12.8 2.4,-13.1 4.5,-32.9 0.9,-56.3 -5.1,-33.3 -18.9,-56.2 -27.3,-69.7 -13.3,-21.6 -34.2,-55.2 -77,-73.9 -9.5,-4.1 -37,-15.7 -71.3,-12 -32.2,3.4 -33.2,16.4 -86.9,30.7 -32.9,8.7 -60.1,12.2 -60.1,12.2 -28.3,3.6 -46.5,3 -46.9,6.5" />
      </g>
      <g
         transform="matrix(0.261438,0,0,0.261438,-1950.0361,-528.29665)"
         id="g430">
        <path
           id="path432"
           style="fill:#ffffff;fill-opacity:1;fill-rule:nonzero;stroke:none"
           d="m 16140.9,8785.22 c -91.5,-42.38 -214.9,17.82 -250,35 -87.5,42.68 -139.6,105.11 -165.1,140.87 -91,225.75 -182,451.5 -273,677.29 36,41.89 221.7,263.01 292.9,244 115.7,-30.87 414,-518.75 490.1,-668.99 64.2,-200.7 9.8,-379.67 -94.9,-428.17" />
      </g>
      <g
         transform="matrix(0.254398,0,0,0.254398,-1950.0361,-528.29665)"
         id="g434">
        <path
           id="path436"
           style="fill:#ffffff;fill-opacity:1;fill-rule:nonzero;stroke:none"
           d="m 15614.8,10333.3 c -13.2,-14 19,-73.1 83.9,-190.7 74.2,-134.6 59.7,-90 93.9,-158.11 14.7,-29.13 20.8,-44.06 39.1,-58.37 41.4,-32.43 97.9,-24.26 148.9,-16.95 28.4,4.13 87.4,13.25 152.4,52.72 74.4,45.21 161.4,116.31 164,166.91 3,59.6 -158.8,288.6 -182.6,291.9 -19.9,2.7 -280.9,-121.8 -357.3,-117.5 -83.1,4.6 -125.3,48.1 -142.3,30.1" />
      </g>
    </g>
  </g>
</svg>
