<?xml version="1.0" encoding="UTF-8" standalone="no"?>
<svg
   xmlns:dc="http://purl.org/dc/elements/1.1/"
   xmlns:cc="http://creativecommons.org/ns#"
   xmlns:rdf="http://www.w3.org/1999/02/22-rdf-syntax-ns#"
   xmlns:svg="http://www.w3.org/2000/svg"
   xmlns="http://www.w3.org/2000/svg"
   xmlns:sodipodi="http://sodipodi.sourceforge.net/DTD/sodipodi-0.dtd"
   xmlns:inkscape="http://www.inkscape.org/namespaces/inkscape"
   id="svg2158"
   version="1.1"
   viewBox="0 0 200 206.625"
   height="206.625mm"
   width="200mm"
   sodipodi:docname="registration.svg"
   inkscape:version="0.92.4 (5da689c313, 2019-01-14)">
  <sodipodi:namedview
     pagecolor="#ffffff"
     bordercolor="#666666"
     borderopacity="1"
     objecttolerance="10"
     gridtolerance="10"
     guidetolerance="10"
     inkscape:pageopacity="0"
     inkscape:pageshadow="2"
     inkscape:window-width="1440"
     inkscape:window-height="870"
     id="namedview38"
     showgrid="false"
     inkscape:zoom="0.30219802"
     inkscape:cx="503.69812"
     inkscape:cy="119.12718"
     inkscape:window-x="0"
     inkscape:window-y="0"
     inkscape:window-maximized="1"
     inkscape:current-layer="g3369" />
  <defs
     id="defs2152" />
  <metadata
     id="metadata2155">
    <rdf:RDF>
      <cc:Work
         rdf:about="">
        <dc:format>image/svg+xml</dc:format>
        <dc:type
           rdf:resource="http://purl.org/dc/dcmitype/StillImage" />
        <dc:title />
      </cc:Work>
    </rdf:RDF>
  </metadata>
  <g
     transform="translate(0,-90.375)"
     id="layer1">
    <g
       transform="translate(2.2725546,-3.3938025)"
       id="g3369">
      <path
         style="opacity:0.98000004;vector-effect:none;fill:#d2eaff;fill-opacity:1;stroke:none;stroke-width:0.32479545;stroke-linecap:butt;stroke-linejoin:miter;stroke-miterlimit:4;stroke-dasharray:none;stroke-dashoffset:0;stroke-opacity:1"
         d="M 602.77734 2.3457031 C 406.81317 1.7967837 13.163076 200.41469 0.34375 334.21875 C -14.71014 491.34653 468.88084 835.94086 612.48438 770.41406 C 756.08789 704.88726 812.71954 113.78645 684.16992 22.185547 C 665.08833 8.5885364 636.93624 2.4413863 602.77734 2.3457031 z M 146.3457 248.90234 C 161.00984 248.90234 172.98828 260.78901 172.98828 275.45312 L 172.98828 322.57812 L 220.02148 322.57812 L 220.02148 322.57617 C 234.67697 322.57617 246.5642 334.4632 246.56836 349.12305 C 246.56836 363.79151 234.6813 375.6875 220.02148 375.6875 L 172.98828 375.67969 L 172.98828 422.81641 C 172.98828 437.48056 161.00984 449.36719 146.3457 449.36719 C 131.68589 449.36719 119.71289 437.48056 119.71289 422.81641 L 119.71289 375.68359 L 72.576172 375.68359 C 57.91636 375.68359 46.019531 363.79737 46.019531 349.12891 C 46.019531 334.46475 57.91636 322.57825 72.576172 322.58203 L 119.71289 322.58203 L 119.71289 275.45312 C 119.71289 260.78901 131.68589 248.90234 146.3457 248.90234 z "
         transform="matrix(0.26458333,0,0,0.26458333,-2.2725546,93.768803)"
         id="path1743-1-4" />
      <g
         style="fill:#133853;fill-opacity:1"
         id="g2048"
         transform="matrix(1.1445095,0,0,1.1445095,9.9036424,159.61262)" />
      <g
         style="fill:#133853;fill-opacity:1"
         id="g2050"
         transform="matrix(1.1445095,0,0,1.1445095,9.9036424,159.61262)" />
      <g
         style="fill:#133853;fill-opacity:1"
         id="g2052"
         transform="matrix(1.1445095,0,0,1.1445095,9.9036424,159.61262)" />
      <g
         style="fill:#133853;fill-opacity:1"
         id="g2054"
         transform="matrix(1.1445095,0,0,1.1445095,9.9036424,159.61262)" />
      <g
         style="fill:#133853;fill-opacity:1"
         id="g2056"
         transform="matrix(1.1445095,0,0,1.1445095,9.9036424,159.61262)" />
      <g
         style="fill:#133853;fill-opacity:1"
         id="g2058"
         transform="matrix(1.1445095,0,0,1.1445095,9.9036424,159.61262)" />
      <g
         style="fill:#133853;fill-opacity:1"
         id="g2060"
         transform="matrix(1.1445095,0,0,1.1445095,9.9036424,159.61262)" />
      <g
         style="fill:#133853;fill-opacity:1"
         id="g2062"
         transform="matrix(1.1445095,0,0,1.1445095,9.9036424,159.61262)" />
      <g
         style="fill:#133853;fill-opacity:1"
         id="g2064"
         transform="matrix(1.1445095,0,0,1.1445095,9.9036424,159.61262)" />
      <g
         style="fill:#133853;fill-opacity:1"
         id="g2066"
         transform="matrix(1.1445095,0,0,1.1445095,9.9036424,159.61262)" />
      <g
         style="fill:#133853;fill-opacity:1"
         id="g2068"
         transform="matrix(1.1445095,0,0,1.1445095,9.9036424,159.61262)" />
      <g
         style="fill:#133853;fill-opacity:1"
         id="g2070"
         transform="matrix(1.1445095,0,0,1.1445095,9.9036424,159.61262)" />
      <g
         style="fill:#133853;fill-opacity:1"
         id="g2072"
         transform="matrix(1.1445095,0,0,1.1445095,9.9036424,159.61262)" />
      <g
         style="fill:#133853;fill-opacity:1"
         id="g2074"
         transform="matrix(1.1445095,0,0,1.1445095,9.9036424,159.61262)" />
      <g
         style="fill:#133853;fill-opacity:1"
         id="g2076"
         transform="matrix(1.1445095,0,0,1.1445095,9.9036424,159.61262)" />
    </g>
    <path
       inkscape:connector-curvature="0"
       d="m 47.616722,286.9657 h 46.124503 c 4.087136,-14.81892 6.171322,-25.55071 6.591825,-29.49156 0,0 0.94052,-21.87593 -21.506217,-19.99893 0,0 -25.619748,-0.49363 -29.891759,29.30671 0,0 0.211272,7.31702 -1.318352,20.18378"
       style="fill:#5954ae;fill-opacity:1;fill-rule:nonzero;stroke:none;stroke-width:0.20313789"
       id="path18-6" />
    <path
       inkscape:connector-curvature="0"
       d="M 127.99434,232.83552 H 102.95149 V 199.3137 h 25.04285 v 33.52182"
       style="fill:#f7ac80;fill-opacity:1;fill-rule:nonzero;stroke:none;stroke-width:0.20313789"
       id="path20-7" />
    <path
       inkscape:connector-curvature="0"
       d="m 172.14433,247.33349 c -6.9656,-10.78052 -17.91066,-13.69964 -17.91066,-13.69964 l -26.23933,-9.7242 h -25.04285 l -26.227131,9.7242 c 0,0 -10.951165,2.91912 -17.922857,13.69964 H 172.14433"
       style="fill:#f7ac80;fill-opacity:1;fill-rule:nonzero;stroke:none;stroke-width:0.20313789"
       id="path22-5" />
    <path
       inkscape:connector-curvature="0"
       d="m 165.79831,286.9657 -0.0813,-2.70581 11.5687,-22.99926 c -3.37818,-22.39395 -23.05413,-27.62678 -23.05413,-27.62678 l -20.01518,-7.41451 -22.83676,7.74768 -15.247528,-7.53034 -19.409836,7.19717 c 0,0 -19.684053,5.23283 -23.060225,27.62678 l 9.366704,25.70507 H 165.79627"
       style="fill:#5954ae;fill-opacity:1;fill-rule:nonzero;stroke:none;stroke-width:0.20313789"
       id="path24-3" />
    <path
       inkscape:connector-curvature="0"
       d="m 138.52095,286.9657 h 49.84801 c -6.5126,-21.15073 -12.75098,-35.78682 -15.20488,-40.19491 0,0 -11.87545,-18.40228 -29.11575,-3.90025 0,0 -21.19746,14.38623 -7.47141,41.18622 0,0 0.70895,0.98521 1.94403,2.90894"
       style="fill:#5954ae;fill-opacity:1;fill-rule:nonzero;stroke:none;stroke-width:0.20313789"
       id="path26-5" />
    <path
       inkscape:connector-curvature="0"
       d="m 73.327886,151.67582 c -0.578947,-4.56247 -1.068489,-6.13678 -1.186334,-16.95184 -0.06093,-5.10284 0.946622,-12.79567 7.286572,-13.44775 8.783671,-0.89989 11.493533,14.28061 12.011547,20.85009 0.71505,9.06606 -1.533709,18.84918 -3.28067,27.72222 -0.629731,3.20553 -0.560658,9.60438 -4.164348,11.14823 -3.089731,1.32851 -2.56562,1.81604 -4.135877,-0.49972 -3.798684,-5.58631 -5.72037,-22.36142 -6.53089,-28.82123"
       style="fill:#7a4f21;fill-opacity:1;fill-rule:nonzero;stroke:none;stroke-width:0.20313789"
       id="path28-6" />
    <path
       inkscape:connector-curvature="0"
       d="m 78.073193,194.64966 c 3.477706,13.59601 9.598277,17.3419 9.598277,17.3419 l 8.206766,1.6068 c 4.724974,-0.60738 12.868794,-2.52703 12.868794,-2.52703 18.74963,-6.37244 24.97173,-5.98852 28.8415,-15.7371 0.1219,-0.29656 13.03133,-50.66463 13.03133,-50.66463 2.39702,-26.1926 -25.01035,-31.63668 -29.15236,-32.31924 -4.0932,-0.94052 -30.196425,-8.19661 -37.903499,16.93765 0,0 -11.389924,29.12998 -5.490808,65.36165"
       style="fill:#f7ac80;fill-opacity:1;fill-rule:nonzero;stroke:none;stroke-width:0.20313789"
       id="path30-2" />
    <path
       inkscape:connector-curvature="0"
       d="m 131.60208,199.73826 c -7.54253,5.83007 -20.30366,9.64906 -29.70082,10.64241 -16.673543,1.7612 -20.431595,-10.52256 -23.299903,-23.52745 0.255959,2.98615 0.589098,6.02915 1.094919,9.15342 3.240037,12.68392 8.95431,16.18196 8.95431,16.18196 l 7.650162,1.49304 c 4.410122,-0.56471 12.011552,-2.35234 12.011552,-2.35234 17.48815,-5.94785 23.29384,-5.59033 26.90359,-14.68077 0,-0.0406 0.25191,-0.93644 0.63583,-2.42748 -1.14976,2.11467 -2.45796,4.12978 -4.24964,5.51721"
       style="fill:#e8a178;fill-opacity:1;fill-rule:nonzero;stroke:none;stroke-width:0.20313789"
       id="path32-9" />
    <path
       inkscape:connector-curvature="0"
       d="m 115.37949,103.717 c 7.79846,-1.04008 16.85433,-3.01456 24.54921,-0.50378 10.25032,3.35584 10.21378,15.03626 14.84938,23.01145 4.9342,8.49117 8.04627,15.67209 7.61767,24.92098 -0.32909,7.16062 -3.12223,3.64834 -4.15621,10.98161 -1.14976,8.15602 -2.70987,8.78776 -6.58369,15.61116 l -14.06732,17.59581 c 2.25281,-8.92587 0.54849,-10.57331 2.60424,-17.42923 2.47015,-8.2271 1.74699,-19.24124 -1.92169,-27.69177 -3.24208,-7.47547 -5.4969,-7.31702 -12.40561,-9.12699 -8.87918,-2.3239 -16.54153,-3.18926 -25.76399,-3.33956 -8.428193,-0.13205 -17.599872,-0.37786 -24.439546,-6.00681 -6.297274,-5.19017 -8.627268,-16.67154 -6.203816,-24.57562 0,0 3.869768,-8.712584 14.72141,-6.34805 6.648702,1.45649 13.409121,3.40458 20.246752,3.626 3.78445,0.11985 7.40439,-0.25392 10.95321,-0.7252"
       style="fill:#7a4f21;fill-opacity:1;fill-rule:nonzero;stroke:none;stroke-width:0.20313789"
       id="path34-1" />
    <path
       inkscape:connector-curvature="0"
       d="m 138.46611,172.92608 c 0,0 4.63155,-10.10001 11.92214,-4.11759 0,0 3.3132,2.59001 -0.77394,9.34433 0,0 -5.92755,9.71609 -13.03739,4.33499 l 1.88919,-9.56173"
       style="fill:#f7ac80;fill-opacity:1;fill-rule:nonzero;stroke:none;stroke-width:0.20313789"
       id="path36-2" />
    <path
       inkscape:connector-curvature="0"
       d="m 139.19536,149.37836 c 0,0 -0.0406,18.07721 -3.35989,27.65924 l 3.53053,0.70082 c 0,0 1.84856,-12.39343 8.2271,-12.54377 l -8.39774,-15.81629"
       style="fill:#7a4f21;fill-opacity:1;fill-rule:nonzero;stroke:none;stroke-width:0.20313789"
       id="path38-7" />
  </g>
</svg>
