<?xml version="1.0" encoding="UTF-8" standalone="no"?>
<svg
   xmlns:dc="http://purl.org/dc/elements/1.1/"
   xmlns:cc="http://creativecommons.org/ns#"
   xmlns:rdf="http://www.w3.org/1999/02/22-rdf-syntax-ns#"
   xmlns:svg="http://www.w3.org/2000/svg"
   xmlns="http://www.w3.org/2000/svg"
   id="svg1445"
   version="1.1"
   viewBox="0 0 100 17.386999"
   height="17.386999mm"
   width="100mm">
  <defs
     id="defs1439" />
  <metadata
     id="metadata1442">
    <rdf:RDF>
      <cc:Work
         rdf:about="">
        <dc:format>image/svg+xml</dc:format>
        <dc:type
           rdf:resource="http://purl.org/dc/dcmitype/StillImage" />
        <dc:title></dc:title>
      </cc:Work>
    </rdf:RDF>
  </metadata>
  <g
     transform="translate(0,-279.613)"
     id="layer1">
    <g
       style="fill:#ffffff"
       id="g262"
       transform="matrix(0.0263784,0,0,-0.0263784,-17.723472,709.72518)">
      <path
         d="M 1172.92,15651.8 H 819.065 c -81.268,0 -147.154,65.9 -147.154,147.2 v 353.8 c 0,81.3 65.886,147.2 147.154,147.2 h 353.855 c 81.27,0 147.15,-65.9 147.15,-147.2 V 15799 c 0,-81.3 -65.88,-147.2 -147.15,-147.2"
         style="fill:#ffffff;fill-opacity:1;fill-rule:nonzero;stroke:none"
         id="path264" />
    </g>
    <g
       style="fill:#133853;fill-opacity:1"
       id="g266"
       transform="matrix(0.02624058,0,0,-0.02624058,-17.723472,709.72497)">
      <path
         d="m 1124.09,16062.5 c -6.07,-6.1 -13.75,-10.6 -22.35,-12.7 v 30.9 c 5.77,4.3 9.15,11.6 7.72,19.6 -1.39,7.8 -7.54,14.2 -15.26,15.8 -12.84,2.7 -24.2,-7.1 -24.2,-19.4 0,-6.6 3.17,-12.4 8.04,-16 v -30.9 c -20.97,5.2 -36.52,24.2 -36.52,46.9 0,13.3 5.42,25.4 14.17,34.2 8.76,8.7 20.85,14.1 34.2,14.1 13.35,0 25.45,-5.4 34.2,-14.1 8.75,-8.8 14.16,-20.9 14.16,-34.2 0,-13.4 -5.41,-25.5 -14.16,-34.2 z m -37.48,37.5 c -4.8,-1.3 -8.57,-6.9 -8.57,-11.9 v -2.4 c -2.64,2.9 -4.26,6.7 -4.26,11 0,4.4 1.81,8.4 4.72,11.3 2.92,3 6.94,4.8 11.39,4.8 4.46,0 8.48,-1.8 11.4,-4.8 2.91,-2.9 4.72,-6.9 4.72,-11.3 0,-4.3 -1.62,-8.1 -4.27,-11 v 2.5 c 0,2.5 -0.63,5.1 -2.12,7.2 -2.98,4.1 -7.95,5.9 -13.01,4.6 z m 11.35,-71.1 c 0,-3.7 -2.95,-6.6 -6.6,-6.6 h -2.94 c -3.65,0 -6.6,2.9 -6.6,6.6 v 59.3 c 0,3.8 2.46,7.4 6.21,8.3 2.94,0.6 5.71,-0.3 7.57,-2.2 1.48,-1.5 2.36,-3.5 2.36,-5.7 z m -6.86,-56.8 c -0.25,-0.6 -0.49,-1.2 -0.75,-1.8 -4.86,-11.5 -11.84,-21.8 -20.72,-30.7 -8.87,-8.9 -19.23,-15.9 -30.75,-20.7 -11.92,-5.1 -24.59,-7.7 -37.65,-7.7 -13.064,0 -25.739,2.6 -37.672,7.7 -11.511,4.8 -21.855,11.8 -30.733,20.7 -8.89,8.9 -15.866,19.2 -20.735,30.7 -0.253,0.6 -0.5,1.2 -0.745,1.8 -1.739,4.4 1.424,9.1 6.117,9.1 h 3.418 c 2.632,0 5.039,-1.5 6.05,-4 12.278,-29.2 41.161,-49.9 74.62,-49.8 33.44,0.1 62.14,20.7 74.21,49.9 0.99,2.4 3.41,3.9 6.02,3.9 h 3.2 c 4.69,0 7.85,-4.7 6.12,-9.1 z m -186.608,56.8 c 2.547,-0.3 5.183,-0.5 7.815,-0.5 h 0.217 c 2.696,0 5.426,0.2 8.098,0.5 v 0 c 0,-3.7 -2.954,-6.6 -6.596,-6.6 h -2.947 c -3.642,0 -6.587,2.9 -6.587,6.6 z m -56.436,67.8 v 48.4 c 0,8.9 7.172,16.1 16.019,16.1 h 23.766 c 3.872,0 7.518,-2.5 8.367,-6.3 0.673,-3 -0.281,-5.8 -2.18,-7.7 -1.473,-1.5 -3.522,-2.4 -5.773,-2.4 h -23.83 l -0.004,-46.8 c 0,-23.7 16.589,-44.9 39.978,-48.8 30.109,-5 56.282,18.3 56.282,47.5 v 48.1 H 937.24 c -3.904,0 -7.57,2.5 -8.383,6.3 -0.632,3 0.334,5.8 2.206,7.7 1.481,1.4 3.53,2.4 5.782,2.4 h 24.166 c 8.85,0 16.017,-7.2 16.017,-16.1 v -47.9 c 0,-31.5 -22.783,-58.3 -52.667,-63.9 -1.228,-0.3 -2.483,-0.5 -3.739,-0.6 -2.729,-0.4 -5.493,-0.5 -8.315,-0.5 -2.652,0 -5.268,0.2 -7.815,0.5 -1.264,0.1 -2.505,0.3 -3.728,0.6 -29.989,5.5 -52.708,31.8 -52.708,63.4 z m 160.894,198.9 c -136.436,4.4 -247.932,-107.1 -243.577,-243.5 3.943,-123.6 104.569,-224.2 228.125,-228.1 136.432,-4.4 247.932,107.1 243.572,243.5 -3.94,123.6 -104.57,224.2 -228.12,228.1"
         style="fill:#133853;fill-opacity:1;fill-rule:nonzero;stroke:none"
         id="path268" />
    </g>
    <g
       style="fill:#ffffff"
       id="g270"
       transform="matrix(0.02634978,0,0,-0.02634978,-17.723472,709.58092)">
      <path
         d="m 1765.01,15734.6 c 39.69,0 75.76,6.3 108.22,18.9 32.47,12.6 59.97,30.1 82.52,52.3 22.55,22.2 39.98,48.5 52.31,78.9 12.31,30.4 18.48,63 18.48,97.9 v 1.8 c 0,34.8 -6.17,67.4 -18.48,97.8 -12.33,30.4 -29.76,56.8 -52.31,79.4 -22.55,22.5 -50.05,40.2 -82.52,53.2 -32.46,12.9 -68.53,19.4 -108.22,19.4 h -147.9 v -499.6 z m -219.13,565.4 h 219.13 c 49.3,0 94.54,-8 135.73,-23.9 41.17,-15.9 76.66,-38 106.41,-66.3 29.76,-28.3 52.76,-61.5 68.99,-99.6 16.24,-38.2 24.35,-79.5 24.35,-124 v -1.8 c 0,-44.5 -8.11,-86 -24.35,-124.5 -16.23,-38.5 -39.23,-71.8 -68.99,-100.1 -29.75,-28.3 -65.24,-50.5 -106.41,-66.7 -41.19,-16.3 -86.43,-24.4 -135.73,-24.4 h -219.13 v 631.3"
         style="fill:#ffffff;fill-opacity:1;fill-rule:nonzero;stroke:none"
         id="path272" />
    </g>
    <g
       style="fill:#ffffff"
       id="g274"
       transform="matrix(0.02609705,0,0,-0.02609705,-17.723472,709.58092)">
      <path
         d="m 2261.05,16291.2 h 70.11 v -122.9 c 8.5,19.4 19.13,37.3 31.87,53.7 12.75,16.4 27.32,30.5 43.71,42.3 16.39,11.9 34.29,20.8 53.72,26.9 19.42,6.1 40.37,8.8 62.83,8.2 v -75.6 h -5.46 c -25.5,0 -49.63,-4.5 -72.39,-13.6 -22.77,-9.1 -42.65,-22.8 -59.64,-41 -17,-18.2 -30.36,-40.8 -40.06,-67.8 -9.72,-27.1 -14.58,-58.2 -14.58,-93.4 v -187.5 h -70.11 v 470.7"
         style="fill:#ffffff;fill-opacity:1;fill-rule:nonzero;stroke:none"
         id="path276" />
    </g>
    <g
       style="fill:#ffffff"
       id="g278"
       transform="matrix(0.02548239,0,0,-0.02548239,-17.723472,709.58092)">
      <path
         d="m 2684.87,16300 h 85.8 v -97.9 h -85.8 v 97.9"
         style="fill:#ffffff;fill-opacity:1;fill-rule:nonzero;stroke:none"
         id="path280" />
    </g>
    <g
       style="fill:#ffffff"
       id="g282"
       transform="matrix(0.02636721,0,0,-0.02636721,-17.723472,709.58092)">
      <path
         d="m 3123.78,15647.5 c -45.67,0 -87.73,8.4 -126.17,25.3 -38.46,16.8 -71.81,39.7 -100.04,68.9 -28.25,29.1 -50.32,63.5 -66.24,103.2 -15.93,39.6 -23.88,82 -23.88,127.1 v 1.8 c 0,44.4 7.95,86.5 23.88,126.1 15.92,39.7 37.99,74.4 66.24,104.1 28.23,29.8 61.88,53.2 100.94,70.3 39.04,17.1 81.7,25.7 127.97,25.7 28.84,0 54.82,-2.4 77.95,-7.2 23.13,-4.8 44.61,-11.6 64.44,-20.3 19.83,-8.7 38.15,-19.2 54.98,-31.5 16.81,-12.3 33.03,-26 48.66,-41 l -48.66,-52.3 c -27.04,25.2 -56.03,46 -86.97,62.2 -30.95,16.2 -68.04,24.3 -111.3,24.3 -34.85,0 -67.14,-6.6 -96.88,-19.8 -29.74,-13.2 -55.58,-31.6 -77.51,-55 -21.94,-23.4 -39.06,-50.9 -51.37,-82.4 -12.32,-31.6 -18.47,-65.4 -18.47,-101.4 v -1.8 c 0,-36.7 6.15,-70.8 18.47,-102.3 12.31,-31.6 29.43,-59.1 51.37,-82.5 21.93,-23.4 47.77,-41.9 77.51,-55.4 29.74,-13.5 62.03,-20.3 96.88,-20.3 43.26,0 80.5,8 111.75,23.9 31.23,15.9 61.87,38.3 91.92,67.1 l 46.87,-45.9 c -16.23,-16.9 -33.21,-32 -50.92,-45.5 -17.73,-13.6 -36.81,-25.1 -57.23,-34.7 -20.43,-9.7 -42.36,-17.2 -65.79,-22.6 -23.43,-5.4 -49.57,-8.1 -78.4,-8.1"
         style="fill:#ffffff;fill-opacity:1;fill-rule:nonzero;stroke:none"
         id="path284" />
    </g>
    <g
       style="fill:#ffffff"
       id="g286"
       transform="matrix(0.02637164,0,0,-0.02637164,-17.723472,709.58092)">
      <path
         d="m 3494.49,16121.6 h 69.38 v -465.9 h -69.38 z m -4.51,178.4 h 79.3 v -76.6 h -79.3 v 76.6"
         style="fill:#ffffff;fill-opacity:1;fill-rule:nonzero;stroke:none"
         id="path288" />
    </g>
    <g
       style="fill:#ffffff"
       id="g290"
       transform="matrix(0.02631039,0,0,-0.02631039,-17.723472,709.58092)">
      <path
         d="m 3890.07,15684 c -18.67,0 -36.13,2.5 -52.39,7.3 -16.25,4.8 -30.25,12.5 -41.99,23 -11.74,10.5 -20.93,24.2 -27.55,41.1 -6.63,16.8 -9.94,37 -9.94,60.5 v 281.8 h -65.02 v 61.4 h 65.02 v 140.9 h 69.55 v -140.9 h 148.12 v -61.4 h -148.12 v -272.1 c 0,-28.8 7.22,-48.9 21.67,-60.3 14.45,-11.4 33.42,-17.1 56.9,-17.1 12.04,0 23.33,1.1 33.87,3.4 10.53,2.3 21.82,6.2 33.87,11.9 v -59.6 c -12.05,-6.6 -24.83,-11.6 -38.38,-14.9 -13.55,-3.3 -28.76,-5 -45.61,-5"
         style="fill:#ffffff;fill-opacity:1;fill-rule:nonzero;stroke:none"
         id="path292" />
    </g>
    <g
       style="fill:#ffffff"
       id="g294"
       transform="matrix(0.02609462,0,0,-0.02609462,-17.723472,709.58092)">
      <path
         d="m 4286.97,15869.3 c 21.82,0 42.1,3 60.83,9 18.74,6.1 35.26,14.7 49.46,25.9 14.25,11.1 25.42,24.4 33.59,39.8 8.18,15.4 12.27,32.5 12.27,51.2 v 43.5 c -17.57,4.9 -37.52,9.4 -59.9,13.6 -22.42,4.3 -48.12,6.4 -77.14,6.4 -43.59,0 -77.35,-8.6 -101.23,-25.9 -23.91,-17.2 -35.85,-40 -35.85,-68.4 v -1.8 c 0,-14.5 3.19,-27.6 9.55,-39.4 6.35,-11.8 14.97,-21.6 25.86,-29.5 10.89,-7.8 23.43,-13.9 37.64,-18.1 14.25,-4.2 29.22,-6.3 44.92,-6.3 z m -14.16,-57.4 c -21.86,0 -43.39,3 -64.64,9.1 -21.29,6.1 -40.06,15.3 -56.46,27.8 -16.39,12.4 -29.58,27.8 -39.62,46 -10.04,18.2 -15.01,39.4 -15.01,63.7 v 1.8 c 0,25.5 4.85,47.8 14.57,67 9.67,19.1 23.51,35 41.4,47.8 17.93,12.7 39.18,22.4 63.75,29.1 24.6,6.7 51.76,10 81.51,10 30.35,0 56.62,-1.8 78.8,-5.4 22.13,-3.7 43.83,-8.5 65.08,-14.6 v 14.5 c 0,41.6 -12.15,73.1 -36.43,94.5 -24.28,21.4 -58.56,32.1 -102.88,32.1 -27.93,0 -53.26,-3 -76.05,-9.1 -22.74,-6 -45.08,-14.2 -66.94,-24.5 l -20.92,57.7 c 26.1,12.3 52.49,22.1 79.2,29.5 26.71,7.4 57.39,11.1 91.99,11.1 66.78,0 117.46,-17.3 152.06,-51.9 32.78,-32.8 49.17,-78.9 49.17,-138.4 v -287.8 h -69.2 v 70.1 c -16.4,-21.2 -38.41,-39.9 -66.02,-56 -27.64,-16 -62.08,-24.1 -103.36,-24.1"
         style="fill:#ffffff;fill-opacity:1;fill-rule:nonzero;stroke:none"
         id="path296" />
    </g>
  </g>
</svg>
